<svg width="400.00000000000006" height="900" xmlns="http://www.w3.org/2000/svg">
 <!-- Created with Method Draw - http://github.com/duopixel/Method-Draw/ -->
 <g>
  <title>background</title>
  <rect fill="none" id="canvas_background" height="902" width="402" y="-1" x="-1"/>
  <g display="none" overflow="visible" y="0" x="0" height="100%" width="100%" id="canvasGrid">
   <rect fill="url(#gridpattern)" stroke-width="0" y="0" x="0" height="100%" width="100%"/>
  </g>
 </g>
 <g>
  <title>Layer 1</title>
  <path id="svg_1" d="m-7.33365,905.66757l156.00059,-32.99938l100.00017,-70.00012c1.9997,0.99932 25.99974,-97.00085 25.99974,-105.00087c0,-8.00001 18.00003,-116.00021 16.00033,-116.99951c1.9997,0.99931 -4.00035,-184.3346 -6.00031,-225.0011c-1.99996,-40.66649 -12.00002,-72.00013 -8.00001,-90.00016c4.00001,-18.00003 -16.00003,-122.00022 -17.99973,-122.9995c1.9997,0.99928 -10.00032,-57.00082 -20.00034,-65.00084c-10.00002,-8.00001 -70.00013,-62.00011 -71.99982,-62.99938c1.99969,0.99927 -26.00036,-55.00083 -28.00005,-54.00009c1.99969,-1.00073 -184.00064,-49.00082 -184.00064,-47.00082c0,2 -190.00034,786.00141 -190.00034,786.00141c0,0 228.00041,206.00037 228.00041,206.00037z" stroke-width="1.5" fill="#e2dbd7"/>
 </g>
</svg>