<svg width="400" height="900" xmlns="http://www.w3.org/2000/svg">
 <!-- Created with Method Draw - http://github.com/duopixel/Method-Draw/ -->
 <g>
  <title>background</title>
  <rect fill="none" id="canvas_background" height="902" width="402" y="-1" x="-1"/>
 </g>
 <g>
  <title>Layer 1</title>
  <path id="svg_1" d="m415.99991,902.96645l-94.00007,-46.96687l-79.99996,-89.99995l-55.99997,-87.99996c0.00011,0.96689 -37.99987,-125.03305 -35.99987,-133.03304c2,-8 8,-203.9999 7.99988,-204.96679c0.00011,0.96688 8.00011,-143.03305 10.00011,-143.03305c2,0 59.99997,-103.99995 59.99986,-104.96683c0.00011,0.96688 42.00009,-39.0331 64.00008,-47.0331c21.99999,-8 127.99994,-45.99998 129.99994,-57.99997c2,-11.99999 89.99996,697.99967 89.99984,697.03277c0.00012,0.96689 -95.99983,218.96679 -95.99983,218.96679z" stroke-width="1.5" fill="#bb7e2f"/>
 </g>
</svg>